<svg xmlns="http://www.w3.org/2000/svg" viewBox="0 0 220 260" role="img" aria-label="Стилизованный золотой герб Беларуси">
  <defs>
    <linearGradient id="gold" x1="0" y1="0" x2="0" y2="1">
      <stop offset="0%" stop-color="#ffe8a6"/>
      <stop offset="45%" stop-color="#f9d270"/>
      <stop offset="100%" stop-color="#c8922f"/>
    </linearGradient>
    <linearGradient id="goldSoft" x1="0" y1="0" x2="1" y2="1">
      <stop offset="0%" stop-color="#fff2c9"/>
      <stop offset="100%" stop-color="#d2a446"/>
    </linearGradient>
  </defs>

  <path d="M40 182C19 153 10 121 12 85C15 56 30 32 52 18" fill="none" stroke="url(#gold)" stroke-width="10" stroke-linecap="round"/>
  <path d="M180 182C201 153 210 121 208 85C205 56 190 32 168 18" fill="none" stroke="url(#gold)" stroke-width="10" stroke-linecap="round"/>

  <g fill="url(#goldSoft)">
    <ellipse cx="30" cy="126" rx="10" ry="5" transform="rotate(-40 30 126)"/>
    <ellipse cx="38" cy="108" rx="10" ry="5" transform="rotate(-35 38 108)"/>
    <ellipse cx="47" cy="92" rx="10" ry="5" transform="rotate(-30 47 92)"/>
    <ellipse cx="57" cy="76" rx="10" ry="5" transform="rotate(-25 57 76)"/>
    <ellipse cx="66" cy="60" rx="10" ry="5" transform="rotate(-20 66 60)"/>

    <ellipse cx="190" cy="126" rx="10" ry="5" transform="rotate(40 190 126)"/>
    <ellipse cx="182" cy="108" rx="10" ry="5" transform="rotate(35 182 108)"/>
    <ellipse cx="173" cy="92" rx="10" ry="5" transform="rotate(30 173 92)"/>
    <ellipse cx="163" cy="76" rx="10" ry="5" transform="rotate(25 163 76)"/>
    <ellipse cx="154" cy="60" rx="10" ry="5" transform="rotate(20 154 60)"/>
  </g>

  <circle cx="110" cy="108" r="52" fill="none" stroke="url(#gold)" stroke-width="8"/>
  <circle cx="110" cy="108" r="42" fill="none" stroke="url(#goldSoft)" stroke-width="2" opacity="0.85"/>

  <polygon points="110,26 118,44 138,46 123,59 127,79 110,69 93,79 97,59 82,46 102,44" fill="url(#gold)"/>

  <path d="M110 79C93 92 87 110 90 124C94 143 109 154 110 162C111 154 126 143 130 124C133 110 127 92 110 79Z"
        fill="url(#goldSoft)" opacity="0.95"/>

  <path d="M58 188C76 202 92 210 110 214C128 210 144 202 162 188" fill="none" stroke="url(#gold)" stroke-width="8" stroke-linecap="round"/>
  <path d="M74 194H146" stroke="url(#goldSoft)" stroke-width="4" stroke-linecap="round"/>
</svg>
