<svg xmlns="http://www.w3.org/2000/svg" viewBox="0 0 1536 1024" role="img" aria-labelledby="title desc">
  <title id="title">Земля в космосе</title>
  <desc id="desc">Синяя планета с сиянием на фоне звездного неба.</desc>
  <defs>
    <radialGradient id="spaceGlow" cx="50%" cy="72%" r="64%">
      <stop offset="0%" stop-color="#1c58b8" stop-opacity="0.45"/>
      <stop offset="55%" stop-color="#0b1b48" stop-opacity="0.35"/>
      <stop offset="100%" stop-color="#01081f" stop-opacity="1"/>
    </radialGradient>
    <radialGradient id="planet" cx="58%" cy="28%" r="70%">
      <stop offset="0%" stop-color="#8ce2ff"/>
      <stop offset="34%" stop-color="#28a9ff"/>
      <stop offset="72%" stop-color="#0a4ea6"/>
      <stop offset="100%" stop-color="#031f53"/>
    </radialGradient>
    <radialGradient id="atmosphere" cx="50%" cy="45%" r="55%">
      <stop offset="74%" stop-color="#7de2ff" stop-opacity="0"/>
      <stop offset="88%" stop-color="#73ceff" stop-opacity="0.55"/>
      <stop offset="100%" stop-color="#80dfff" stop-opacity="0"/>
    </radialGradient>
    <linearGradient id="horizon" x1="0" y1="0" x2="0" y2="1">
      <stop offset="0%" stop-color="#ffffff" stop-opacity="0.55"/>
      <stop offset="100%" stop-color="#ffffff" stop-opacity="0"/>
    </linearGradient>
    <filter id="blur20" x="-20%" y="-20%" width="140%" height="140%">
      <feGaussianBlur stdDeviation="20"/>
    </filter>
  </defs>

  <rect width="1536" height="1024" fill="url(#spaceGlow)"/>

  <g fill="#a7d7ff" opacity="0.9">
    <circle cx="102" cy="86" r="2.8"/><circle cx="208" cy="150" r="2"/><circle cx="314" cy="90" r="3"/>
    <circle cx="468" cy="70" r="2.5"/><circle cx="615" cy="128" r="2.2"/><circle cx="781" cy="84" r="3.4"/>
    <circle cx="930" cy="135" r="2.7"/><circle cx="1096" cy="82" r="2.4"/><circle cx="1264" cy="126" r="3.2"/>
    <circle cx="1418" cy="88" r="2.9"/><circle cx="93" cy="244" r="2.1"/><circle cx="261" cy="218" r="2.6"/>
    <circle cx="403" cy="282" r="3"/><circle cx="547" cy="236" r="2"/><circle cx="714" cy="258" r="2.7"/>
    <circle cx="860" cy="217" r="3.2"/><circle cx="1007" cy="274" r="2.1"/><circle cx="1175" cy="244" r="2.8"/>
    <circle cx="1321" cy="279" r="2.6"/><circle cx="1465" cy="235" r="2.2"/><circle cx="156" cy="374" r="2.8"/>
    <circle cx="312" cy="340" r="2"/><circle cx="482" cy="386" r="2.7"/><circle cx="639" cy="342" r="2.2"/>
    <circle cx="794" cy="380" r="3.1"/><circle cx="948" cy="336" r="2.1"/><circle cx="1094" cy="390" r="2.9"/>
    <circle cx="1240" cy="348" r="2.4"/><circle cx="1408" cy="392" r="3"/><circle cx="88" cy="517" r="2.2"/>
    <circle cx="246" cy="556" r="2.9"/><circle cx="382" cy="506" r="2"/><circle cx="542" cy="560" r="2.7"/>
    <circle cx="699" cy="514" r="3.3"/><circle cx="856" cy="566" r="2.2"/><circle cx="1004" cy="519" r="2.8"/>
    <circle cx="1151" cy="563" r="2.4"/><circle cx="1299" cy="521" r="3"/><circle cx="1450" cy="569" r="2.5"/>
  </g>

  <g opacity="0.7">
    <circle cx="248" cy="802" r="110" fill="#2f74ff" filter="url(#blur20)"/>
    <circle cx="1278" cy="718" r="120" fill="#357dff" filter="url(#blur20)"/>
  </g>

  <g transform="translate(768 870)">
    <circle cx="0" cy="0" r="530" fill="url(#planet)"/>
    <ellipse cx="34" cy="-214" rx="460" ry="188" fill="url(#horizon)"/>
    <circle cx="0" cy="0" r="558" fill="url(#atmosphere)"/>

    <path d="M-340 -130c62-84 198-136 300-121 52 7 88 20 118 46 22 19 46 37 86 47 38 10 88 9 138 30 40 17 78 50 112 95-67 19-137 32-214 42-163 21-371 8-540-24z" fill="#b7f6ff" opacity="0.6"/>
    <path d="M-240 -40c80 12 150 48 236 46 49-1 90-16 134-30 57-18 114-23 186-8-55 56-138 94-247 112-129 21-256 4-362-33-34-12-62-27-93-48 45-23 96-43 146-39z" fill="#85d7a3" opacity="0.34"/>

    <ellipse cx="-14" cy="182" rx="430" ry="208" fill="#000" opacity="0.47"/>
    <g fill="#ffc978" opacity="0.75">
      <circle cx="-210" cy="120" r="5"/><circle cx="-186" cy="132" r="4.3"/><circle cx="-168" cy="126" r="3.8"/>
      <circle cx="-120" cy="146" r="5.2"/><circle cx="-84" cy="136" r="4.1"/><circle cx="-46" cy="153" r="4.7"/>
      <circle cx="52" cy="141" r="4.4"/><circle cx="88" cy="126" r="5.6"/><circle cx="121" cy="154" r="4.6"/>
      <circle cx="172" cy="136" r="4.8"/><circle cx="212" cy="156" r="4.2"/><circle cx="258" cy="132" r="5.4"/>
    </g>
  </g>
</svg>
